<svg width="18" height="25" viewBox="0 0 18 25" fill="none" xmlns="http://www.w3.org/2000/svg">
<g filter="url(#filter0_d_144:685)">
<path d="M13.5286 7.29242C13.4448 7.20643 13.352 7.13386 13.2556 7.07074L6.78769 0.481933C6.15643 -0.160543 5.13336 -0.160848 4.50181 0.482238C3.87055 1.12502 3.87055 2.16756 4.50181 2.81095L10.0724 8.48529L4.47367 14.1895C3.84211 14.832 3.84211 15.8748 4.47367 16.5182C4.78945 16.8393 5.20281 17 5.61616 17C6.02952 17 6.44378 16.8393 6.75866 16.5176L13.2556 9.89983C13.352 9.83671 13.4445 9.76445 13.5286 9.67815C13.8519 9.34883 14.0069 8.91645 13.9997 8.48529C14.0072 8.05382 13.8519 7.62083 13.5286 7.29242Z" fill="black"/>
</g>
<defs>
<filter id="filter0_d_144:685" x="0" y="0" width="18" height="25" filterUnits="userSpaceOnUse" color-interpolation-filters="sRGB">
<feFlood flood-opacity="0" result="BackgroundImageFix"/>
<feColorMatrix in="SourceAlpha" type="matrix" values="0 0 0 0 0 0 0 0 0 0 0 0 0 0 0 0 0 0 127 0" result="hardAlpha"/>
<feOffset dy="4"/>
<feGaussianBlur stdDeviation="2"/>
<feComposite in2="hardAlpha" operator="out"/>
<feColorMatrix type="matrix" values="0 0 0 0 0 0 0 0 0 0 0 0 0 0 0 0 0 0 0.25 0"/>
<feBlend mode="normal" in2="BackgroundImageFix" result="effect1_dropShadow_144:685"/>
<feBlend mode="normal" in="SourceGraphic" in2="effect1_dropShadow_144:685" result="shape"/>
</filter>
</defs>
</svg>
