<svg width="18" height="25" viewBox="0 0 18 25" fill="none" xmlns="http://www.w3.org/2000/svg">
<g filter="url(#filter0_d_144:683)">
<path d="M4.47081 7.29199C4.55552 7.206 4.64742 7.13343 4.7441 7.07031L11.2119 0.481925C11.8429 -0.16054 12.8665 -0.160845 13.4978 0.48223C14.1291 1.125 14.1291 2.16752 13.4978 2.8109L7.9277 8.48514L13.5265 14.189C14.1578 14.8317 14.1578 15.8739 13.5265 16.5176C13.2108 16.8396 12.7968 17 12.3837 17C11.9707 17 11.5564 16.8396 11.2409 16.5176L4.7441 9.89874C4.64742 9.83562 4.55492 9.76305 4.47081 9.67706C4.14814 9.34836 3.9925 8.91538 4.00028 8.48453C3.9925 8.05368 4.14814 7.62099 4.47081 7.29199Z" fill="black"/>
</g>
<defs>
<filter id="filter0_d_144:683" x="0" y="0" width="18" height="25" filterUnits="userSpaceOnUse" color-interpolation-filters="sRGB">
<feFlood flood-opacity="0" result="BackgroundImageFix"/>
<feColorMatrix in="SourceAlpha" type="matrix" values="0 0 0 0 0 0 0 0 0 0 0 0 0 0 0 0 0 0 127 0" result="hardAlpha"/>
<feOffset dy="4"/>
<feGaussianBlur stdDeviation="2"/>
<feComposite in2="hardAlpha" operator="out"/>
<feColorMatrix type="matrix" values="0 0 0 0 0 0 0 0 0 0 0 0 0 0 0 0 0 0 0.25 0"/>
<feBlend mode="normal" in2="BackgroundImageFix" result="effect1_dropShadow_144:683"/>
<feBlend mode="normal" in="SourceGraphic" in2="effect1_dropShadow_144:683" result="shape"/>
</filter>
</defs>
</svg>
